<svg width="48" height="48" viewBox="0 0 192 192" xmlns="http://www.w3.org/2000/svg">
  <g fill="#424242">
    <path d="M18.204 176.021H173.79600000000002V184H18.204z"/>
    <path d="M24.189 160.676H167.81199999999998V171.724H24.189z"/>
    <path d="M24.572 34.853H167.428V50.197H24.572z"/>
    <path d="M96 8L21.196 25.493 25.493 30.249 96 30.249 166.507 30.249 170.804 25.493"/>
    <path d="M44.026,98.773c-0.123-7.536-0.318-15.072-0.614-22.603c-0.278-7.095-0.735-14.184-1.08-21.277 c-0.03-0.612-0.289-0.745-0.797-0.856c-2.093-0.456-4.197-0.671-6.309-0.674c-2.113,0.003-4.216,0.218-6.309,0.674 c-0.508,0.111-0.768,0.243-0.797,0.856c-0.345,7.093-0.802,14.182-1.08,21.277c-0.295,7.531-0.491,15.067-0.614,22.603 c-0.087,5.341-0.033,10.685,0.051,16.027c0.093,5.926,0.225,11.854,0.465,17.775c0.257,6.355,0.655,12.705,1.004,19.056 c0.067,1.217,0.192,2.431,0.287,3.614c2.345,0.61,4.67,0.963,6.994,0.992c2.324-0.029,4.648-0.382,6.994-0.992 c0.095-1.183,0.219-2.397,0.286-3.614c0.349-6.351,0.747-12.701,1.004-19.056c0.24-5.922,0.372-11.849,0.465-17.775 C44.059,109.458,44.114,104.114,44.026,98.773z"/>
    <path d="M82.922,98.773c-0.123-7.536-0.319-15.072-0.614-22.603c-0.278-7.095-0.736-14.184-1.08-21.277 c-0.03-0.612-0.289-0.745-0.797-0.856c-2.092-0.456-4.197-0.671-6.309-0.674c-2.113,0.003-4.216,0.218-6.309,0.674 c-0.508,0.111-0.768,0.243-0.797,0.856c-0.345,7.093-0.802,14.182-1.08,21.277c-0.295,7.531-0.491,15.067-0.614,22.603 c-0.087,5.341-0.033,10.685,0.051,16.027c0.094,5.926,0.225,11.854,0.465,17.775c0.258,6.355,0.655,12.705,1.004,19.056 c0.067,1.217,0.192,2.431,0.286,3.614c2.345,0.61,4.67,0.963,6.994,0.992c2.324-0.029,4.648-0.382,6.994-0.992 c0.095-1.183,0.219-2.397,0.286-3.614c0.348-6.351,0.746-12.701,1.004-19.056c0.24-5.922,0.372-11.849,0.465-17.775 C82.956,109.458,83.01,104.114,82.922,98.773z"/>
    <path d="M127.033,98.773c-0.123-7.536-0.318-15.072-0.614-22.603c-0.278-7.095-0.735-14.184-1.08-21.277 c-0.03-0.612-0.289-0.745-0.798-0.856c-2.092-0.456-4.196-0.671-6.309-0.674c-2.113,0.003-4.216,0.218-6.309,0.674 c-0.508,0.111-0.768,0.243-0.797,0.856c-0.345,7.093-0.802,14.182-1.08,21.277c-0.296,7.531-0.491,15.067-0.614,22.603 c-0.087,5.341-0.033,10.685,0.051,16.027c0.094,5.926,0.225,11.854,0.465,17.775c0.258,6.355,0.655,12.705,1.004,19.056 c0.067,1.217,0.192,2.431,0.286,3.614c2.345,0.61,4.67,0.963,6.994,0.992c2.324-0.029,4.648-0.382,6.994-0.992 c0.095-1.183,0.219-2.397,0.286-3.614c0.349-6.351,0.746-12.701,1.004-19.056c0.24-5.922,0.371-11.849,0.465-17.775 C127.066,109.458,127.12,104.114,127.033,98.773z"/>
    <path d="M166.007,98.773c-0.123-7.536-0.318-15.072-0.614-22.603c-0.278-7.095-0.736-14.184-1.08-21.277 c-0.03-0.612-0.289-0.745-0.798-0.856c-2.092-0.456-4.196-0.671-6.309-0.674c-2.112,0.003-4.216,0.218-6.309,0.674 c-0.508,0.111-0.768,0.243-0.797,0.856c-0.345,7.093-0.803,14.182-1.08,21.277c-0.295,7.531-0.491,15.067-0.614,22.603 c-0.087,5.341-0.033,10.685,0.051,16.027c0.094,5.926,0.225,11.854,0.465,17.775c0.257,6.355,0.655,12.705,1.004,19.056 c0.067,1.217,0.192,2.431,0.286,3.614c2.346,0.61,4.67,0.963,6.994,0.992c2.324-0.029,4.649-0.382,6.994-0.992 c0.095-1.183,0.219-2.397,0.286-3.614c0.349-6.351,0.747-12.701,1.004-19.056c0.24-5.922,0.371-11.849,0.465-17.775 C166.041,109.458,166.095,104.114,166.007,98.773z"/>
  </g>
</svg>
