<svg width="48" height="48" viewBox="0 0 192 192" xmlns="http://www.w3.org/2000/svg">
  <g fill="#5E7390">
    <path d="M65.616,90.665c11.325,0.732,22.365,1.393,32.454,6.776c8.184,4.367,11.074,11.05,8.273,19.925 c-4.461,14.137-14.283,24.43-25.428,33.318c-17.668,14.09-37.924,23.38-59.539,29.736c-2.584,0.76-5.314,1.262-8,1.39 c-5.21,0.249-6.459-1.38-4.499-6.324c3.733-9.413,8.908-18.128,14.302-26.641c6.332-9.996,13.179-19.67,19.961-29.374 c1.532-2.192,3.582-4.086,5.642-5.821c1.464-1.232,3.425-2.261,5.297-0.729c1.66,1.359,0.953,3.204,0.347,4.852 c-1.752,4.768-4.487,9.032-7.054,13.369c-4.254,7.189-8.41,14.424-11.523,22.197c-0.779,1.945-1.997,4.204-0.383,6.054 c1.762,2.018,4.173,0.536,5.96-0.196c16.508-6.76,30.383-17.037,40.931-31.537c1.348-1.854,2.284-4.072,3.097-6.238 c2.679-7.14,0.648-11.564-6.406-14.273c-5.873-2.255-12.051-3.015-18.256-3.236c-7.369-0.262-14.752-0.109-22.129-0.168 c-1.549-0.012-3.142,0.037-4.635-0.296c-2.213-0.494-5.119-0.731-5.309-3.622c-0.175-2.676,2.59-3.068,4.531-3.744 C43.81,92.408,54.806,91.383,65.616,90.665z"/>
    <path d="M130.306,163.383c-8.312,0.335-18.876-1.154-29.431-2.69c-1.909-0.278-3.809-0.777-5.639-1.395 c-1.707-0.576-3.297-1.626-3.162-3.689c0.139-2.119,1.871-2.779,3.696-3.039c4.415-0.628,8.825-1.219,13.313-1.184 c11.252,0.087,22.508-0.233,33.603-2.226c9.76-1.753,11.658-5.862,5.704-13.994c-7.205-9.842-15.295-19.037-23.031-28.489 c-3.468-4.237-6.325-8.845-8.371-13.911c-3.087-7.645-1.062-14.025,5.682-18.822c5.738-4.081,12.321-5.768,19.124-6.293 c11.661-0.9,23.256-0.08,34.649,2.763c1.498,0.374,2.98,0.888,4.388,1.52c1.603,0.719,3.296,1.617,3.161,3.719 c-0.144,2.245-2.154,2.457-3.798,2.962c-2.832,0.869-5.767,0.799-8.665,0.738c-8.16-0.172-16.276,0.318-24.378,1.242 c-10.128,1.156-12.567,5.88-7.212,14.476c4.95,7.946,11.906,14.287,17.704,21.561c4.587,5.755,9.701,11.12,13.039,17.792 c5.517,11.027,1.73,20.846-9.9,25.308c-2.701,1.036-5.559,1.693-8.378,2.388C145.921,163.717,139.296,163.267,130.306,163.383z"/>
    <path d="M87.301,22.138c-5.82-0.201-10.887,0.478-15.846-0.858c-1.691-0.456-3.704-0.764-3.863-2.899 c-0.159-2.132,1.832-2.769,3.393-3.464c5.749-2.559,11.926-3.431,18.085-4.003c12.196-1.131,24.386-1.497,36.209,2.72 c12.424,4.432,16.062,13.145,10.596,25.241c-3.015,6.673-7.745,12.047-12.873,17.079c-10.603,10.405-22.72,18.691-36.11,25.101 c-2.437,1.167-4.991,2.133-7.565,2.959c-1.956,0.628-4.326,1.743-5.717-0.773c-1.193-2.158,0.609-3.694,2.014-4.936 c3.187-2.819,6.427-5.604,9.842-8.136c8.268-6.131,16.129-12.703,23.209-20.198c3.22-3.409,6.021-7.122,8.187-11.247 c3.377-6.43,1.658-10.662-5.167-13.133C103.553,22.644,95.07,22.039,87.301,22.138z"/>
  </g>
</svg>
