<svg width="48" height="48" viewBox="0 0 192 192" xmlns="http://www.w3.org/2000/svg">
  <path d="M37.333,49.067V166.4H25.6c-9.72,0-17.6-7.88-17.6-17.6V66.667c0-9.72,7.88-17.6,17.6-17.6H37.333z M43.2,49.067h26.4V38.8c0-7.29,5.91-13.2,13.2-13.2h26.4c7.29,0,13.2,5.91,13.2,13.2v10.267h26.4V166.4H43.2V49.067z M78.4,49.067h35.2V38.8c0-2.43-1.97-4.4-4.4-4.4H82.8c-2.43,0-4.4,1.97-4.4,4.4V49.067z M154.667,49.067H166.4 c9.72,0,17.6,7.88,17.6,17.6V148.8c0,9.72-7.88,17.6-17.6,17.6h-11.733V49.067z" fill="#F00"/>
  <linearGradient id="a" gradientUnits="userSpaceOnUse" x1=".7073" y1="192.2084" x2=".8809" y2="192.2084" gradientTransform="scale(412.826) rotate(55 -184.352 -96.513)">
    <stop offset="0" stop-color="#666"/>
    <stop offset="1" stop-color="#333"/>
  </linearGradient>
  <circle cx="96" cy="108" r="25.731" fill="url(#a)"/>
  <path d="M96,136.453c-15.755,0-28.452-12.698-28.452-28.453c0-15.685,12.765-28.452,28.452-28.452 c15.754,0,28.453,12.698,28.453,28.452C124.453,123.754,111.753,136.453,96,136.453 M97.561,82.739c0,1.289,0.34,3.53-1.562,3.53 c-1.901,0-1.562-2.241-1.562-3.53c-12.766,0.815-22.884,10.932-23.7,23.699c1.29,0,3.531-0.34,3.531,1.561 c0,1.902-2.241,1.563-3.531,1.563c0.817,12.766,10.934,22.884,23.7,23.699c0-1.29-0.339-3.532,1.562-3.532 c1.902,0,1.562,2.242,1.562,3.532c12.698-0.816,22.884-11.001,23.7-23.699c-1.292,0-3.532,0.339-3.532-1.563 c0-1.901,2.24-1.561,3.532-1.561C120.513,93.672,110.328,83.554,97.561,82.739 M98.648,111.192V128.1h-4.21v-16.908 c-0.407-0.203-0.815-0.543-1.155-0.883l-12.359,3.327l-1.087-4.073l12.36-3.328c0.475-2.038,2.307-3.463,4.344-3.463 c2.513,0,4.484,2.037,4.484,4.482C101.025,108.883,100.142,110.445,98.648,111.192z" fill="#E5E5E5"/>
</svg>
