<svg width="48" height="48" viewBox="0 0 192 192" xmlns="http://www.w3.org/2000/svg">
  <g fill="#FF0027">
    <path d="M42.261,49.93c10.673-0.001,21.345,0.014,32.018-0.021c1.218-0.004,1.669,0.293,1.351,1.568 c-0.286,1.149-0.391,2.343-0.572,3.518c-0.125,0.808-0.565,1.194-1.408,1.254c-5.786,0.413-11.569,0.852-17.353,1.29 c-0.552,0.042-1.26-0.013-1.479,0.569c-0.208,0.552,0.332,0.995,0.657,1.448c1.217,1.694,2.359,3.442,3.613,5.107 c1.42,1.885,2.885,3.749,4.257,5.659c1.939,2.699,4.056,5.259,5.966,7.977c1.235,1.758,2.734,3.31,3.966,5.082 c2.163,3.114,4.771,5.893,6.921,9.023c0.83,1.208,1.737,2.364,2.601,3.549c0.457,0.627,0.875,0.646,1.439,0.072 c2.468-2.508,5.325-4.565,7.983-6.855c2.205-1.9,4.468-3.74,6.703-5.596c1.835-1.523,3.597-3.149,5.495-4.606 c0.933-0.717,1.732-1.614,2.561-2.46c1.45-1.48,3.049-2.822,4.215-4.564c0.214-0.319,0.46-0.62,0.644-0.955 c0.327-0.594,0.209-0.991-0.533-1.111c-1.553-0.251-3.101-0.541-4.655-0.787c-3.761-0.595-7.526-1.157-11.32-1.509 c-0.415-0.039-0.79-0.15-0.873-0.602c-0.321-1.749-0.796-3.471-0.939-5.254c-0.054-0.679,0.294-0.865,0.87-0.866 c0.91,0,1.82-0.001,2.729-0.001c17.321-0.001,34.642-0.006,51.963,0.013c0.657,0.001,1.578-0.359,1.923,0.353 c0.311,0.641-0.437,1.168-0.821,1.716c-0.82,1.171-1.588,2.381-2.307,3.616c-0.348,0.598-0.769,0.914-1.449,1.052 c-5.027,1.024-10.056,2.039-15.064,3.15c-1.876,0.416-3.321,1.739-4.865,2.803c-1.659,1.144-3.276,2.351-4.882,3.57 c-3.205,2.431-6.43,4.838-9.572,7.348c-2.915,2.329-5.753,4.757-8.587,7.185c-2.641,2.262-5.238,4.577-7.644,7.093 c-0.869,0.908-1.768,1.808-2.694,2.629c-2.502,2.217-3.243,5.01-3.257,8.172c-0.031,6.506,0.024,13.01,0.345,19.508 c0.095,1.93,0.12,1.972,2.063,2.109c5.265,0.372,10.531,0.717,15.799,1.045c1.856,0.116,1.961,0.215,1.748,2.03 c-0.146,1.25-0.262,2.504-0.347,3.759c-0.073,1.077-0.644,1.448-1.665,1.364c-4.785-0.391-9.581-0.166-14.371-0.199 c-6.298-0.043-12.599-0.097-18.895,0.018c-8.496,0.154-16.99,0.458-25.49,0.437c-0.76-0.002-1.524,0.316-2.281-0.022 c-0.352-0.157-0.655-0.255-0.556-0.821c0.253-1.444,0.412-2.905,0.576-4.363c0.107-0.953,0.379-1.455,1.559-1.403 c4.038,0.179,8.047-0.255,11.952-1.278c2.114-0.554,4.249-1.288,5.296-3.54c0.409-0.879,0.472-1.827,0.475-2.763 c0.022-6.228,0.006-12.457,0.019-18.686c0.004-2.109-1.33-3.605-2.495-5.077c-1.673-2.115-3.179-4.351-4.891-6.444 c-1.708-2.088-3.284-4.313-4.928-6.467c-1.861-2.437-3.876-4.756-5.815-7.134c-1.01-1.24-1.97-2.522-3.004-3.742 c-2.348-2.773-4.705-5.539-7.102-8.27c-2.089-2.381-4.209-4.736-6.371-7.05c-0.925-0.99-1.989-1.85-2.999-2.759 c-0.463-0.416-1.053-0.524-1.647-0.609c-5.915-0.847-11.828-1.705-17.745-2.531c-0.796-0.111-1.245-0.57-1.045-1.244 c0.385-1.299,0.35-2.632,0.473-3.941c0.112-1.19,0.487-1.593,1.723-1.588C20.916,49.95,31.589,49.931,42.261,49.93z"/>
    <path d="M141.49,115.536c0.405-1.304,0.842-2.704,1.275-4.104c2.313-7.478,4.645-14.949,6.932-22.435 c1.661-5.439,3.242-10.903,4.896-16.345c1.342-4.414,2.748-8.809,4.108-13.218c0.286-0.928,0.809-1.049,1.682-0.776 c4.833,1.512,9.681,2.981,14.523,4.466c2.736,0.839,5.479,1.658,8.204,2.532c1.086,0.348,1.143,0.931,0.369,2.117 c-1.105,1.694-2.231,3.377-3.262,5.115c-3.598,6.067-7.174,12.148-10.731,18.24c-2.143,3.671-4.108,7.452-6.383,11.038 c-3.52,5.548-6.665,11.313-10.1,16.908c-0.257,0.419-0.493,0.699-1.083,0.515c-3.233-1.011-6.477-1.987-9.72-2.964 C141.69,116.472,141.421,116.184,141.49,115.536z"/>
    <path d="M143.549,142.096c-0.665-0.198-1.519-0.396-2.331-0.706c-3.207-1.223-6.523-2.067-9.852-2.861 c-1.822-0.434-2.061-0.764-1.359-2.335c1.494-3.347,3.02-6.679,4.485-10.039c0.329-0.756,0.752-0.781,1.397-0.522 c4.154,1.672,8.452,2.894,12.777,4.019c0.748,0.195,1.057,0.474,0.723,1.224c-1.504,3.381-3.007,6.763-4.512,10.144 C144.648,141.534,144.437,142.069,143.549,142.096z"/>
  </g>
</svg>
