<svg width="48" height="48" viewBox="0 0 192 192" xmlns="http://www.w3.org/2000/svg">
  <radialGradient id="a" cx="270.4538" cy="2.145" r="77.4084" gradientTransform="matrix(1 0 0 -1 -210 84)" gradientUnits="userSpaceOnUse">
    <stop offset="0" stop-color="#7ac943"/>
    <stop offset=".25" stop-color="#0f0"/>
    <stop offset="1" stop-color="#3fa9f5"/>
  </radialGradient>
  <circle cx="95.996" cy="104.782" r="42.681" fill="url(#a)"/>
  <path fill="#E6E1E5" d="M185.406,62.587l-10.577-10.556c-3.135-3.123-7.255-5.748-10.654-6.957 c2.759-2.187,4.536-5.559,4.536-9.345v-7.536c0-5.891-4.294-10.786-9.915-11.748V9.653c0-0.912-0.74-1.653-1.653-1.653H34.025 c-0.912,0-1.653,0.74-1.653,1.653v7.194c-4.788,1.552-8.263,6.05-8.263,11.348v7.535c0,6.58,5.353,11.932,11.932,11.932h3.229 c-0.969,1.881-2.894,3.168-5.108,3.168c-0.492,0-0.928,0.219-1.23,0.559c-0.34,0.302-0.559,0.739-0.559,1.23v119.145 c0,6.518,5.704,12.235,12.206,12.235h102.793c6.525,0,12.25-5.717,12.25-12.235V52.62c0-0.844-0.637-1.534-1.455-1.633 c-0.212-0.098-0.445-0.157-0.693-0.157c-2.255,0-4.267-1.301-5.292-3.168h2.482h2.115h3.942c2.433,0,7.746,2.697,11.775,6.71 l10.576,10.554c0.323,0.322,0.745,0.483,1.168,0.483c0.424,0,0.847-0.162,1.17-0.485C186.053,64.278,186.051,63.232,185.406,62.587 z M155.489,19.568v7.437h-4.131v-7.437H155.489z M148.053,27.005H43.114v-7.437h104.939V27.005z M39.809,27.005h-4.131v-7.418 c0.121-0.005,0.241-0.018,0.364-0.018h3.768V27.005z M35.677,30.31h4.131v7.418c-1.176-0.953-2.585-1.626-4.131-1.908V30.31z M43.218,44.357c-0.019-0.326-0.052-0.649-0.104-0.965V30.31h104.939v14.047H43.218z M151.358,30.31h4.131v5.518 c-1.554,0.298-2.969,1.01-4.131,2.018V30.31z M35.677,11.305h119.812v4.958h-5.784H41.461h-5.42c-0.122,0-0.242,0.015-0.364,0.018 V11.305z M27.414,35.73v-7.536c0-3.443,2.033-6.414,4.958-7.796v7.432v0.826v8.666c0,0.912,0.74,1.653,1.653,1.653 c2.795,0,5.212,2.066,5.784,4.726v0.655h-3.768C31.285,44.357,27.414,40.486,27.414,35.73z M156.316,54.052v117.713 c0,4.757-4.18,8.93-8.945,8.93H44.578c-4.741,0-8.901-4.173-8.901-8.93V53.996c3.385-0.582,6.142-3.064,7.151-6.334h105.775 C149.702,51.013,152.727,53.587,156.316,54.052z M154.663,44.357h-3.174c0.265-3.013,2.698-5.381,5.653-5.381 c0.912,0,1.653-0.74,1.653-1.653v-8.666v-0.826v-8.015c3.785,0.912,6.61,4.318,6.61,8.379v7.535c0,4.757-3.87,8.626-8.626,8.626 H154.663z M146.546,170.793c-0.216,0.599-0.779,0.972-1.382,0.972c-0.165,0-0.333-0.027-0.497-0.087 c-31.4-11.304-65.983-11.304-97.385,0c-0.763,0.276-1.605-0.121-1.879-0.884c-0.274-0.763,0.121-1.604,0.884-1.878 c32.043-11.536,67.334-11.536,99.374,0C146.424,169.189,146.821,170.031,146.546,170.793z"/>
  <path d="M96.086,149.329c0.009,0,0.017-0.015,0.026-0.015c0.003,0,0.007-0.018,0.01-0.018c0.002,0,0.005,0,0.007,0 c0.002,0,0.004,0,0.007,0c0.003,0,0.007,0.018,0.01,0.018c0.009,0,0.017,0.006,0.026,0.006c24.563-0.022,44.54-20.063,44.54-44.631 c0-24.543-19.936-44.632-44.464-44.632c-0.004,0-0.007,0-0.012,0c-0.036,0-0.071-0.002-0.107-0.002 c-0.038,0-0.075,0.002-0.113,0.002c-0.002,0-0.002,0-0.004,0c-24.529,0-44.465,20.093-44.465,44.637 C51.547,129.26,71.522,149.306,96.086,149.329z M64.032,78.245c4.681,2.941,9.72,5.18,14.949,6.7 c-2.124,6.224-3.262,12.883-3.27,19.732H54.486C54.503,94.644,58.085,85.433,64.032,78.245z M96.129,63.653 c5.793,5.338,10.288,11.935,13.269,19.294c-8.703,2.005-17.829,1.995-26.527-0.026C85.851,75.572,90.342,68.985,96.129,63.653z M96.189,87.381c4.788,0,9.576-0.562,14.245-1.667c2.06,5.973,3.166,12.373,3.175,18.962h-34.96 c0.009-6.599,1.118-13.007,3.184-18.987C86.536,86.811,91.362,87.381,96.189,87.381z M137.772,104.676h-21.226 c-0.008-6.838-1.143-13.486-3.26-19.701c5.24-1.512,10.289-3.744,14.981-6.68C134.188,85.476,137.754,94.667,137.772,104.676z M96.129,145.846c-5.686-5.239-10.121-11.689-13.101-18.883c8.597-1.953,17.599-1.944,26.191,0.026 C106.239,134.172,101.806,140.614,96.129,145.846z M81.967,124.2c-1.816-5.135-2.925-10.591-3.229-16.218h34.782 c-0.305,5.638-1.417,11.103-3.239,16.246C101,122.036,91.252,122.026,81.967,124.2z M116.464,107.981h21.172 c-0.69,8.936-4.207,17.09-9.663,23.564c-4.652-2.889-9.654-5.085-14.841-6.579C115.013,119.582,116.16,113.87,116.464,107.981z M75.793,107.981c0.302,5.877,1.447,11.578,3.322,16.953c-5.197,1.486-10.208,3.677-14.872,6.562 c-5.433-6.467-8.932-14.601-9.621-23.515H75.793z M66.243,133.709c4.371-2.647,9.059-4.651,13.91-6.018 c2.814,6.937,6.908,13.235,12.12,18.517C82.098,145.268,72.978,140.655,66.243,133.709z M99.983,146.208 c5.205-5.275,9.293-11.562,12.108-18.486c4.841,1.374,9.519,3.384,13.878,6.033C119.241,140.675,110.136,145.271,99.983,146.208z M126.282,76.072c-4.398,2.698-9.12,4.748-14.012,6.142c-2.818-7.096-6.972-13.537-12.287-18.922 C110.295,64.242,119.523,68.969,126.282,76.072z M92.274,63.291C86.967,68.669,82.819,75.098,80,82.182 c-4.883-1.401-9.593-3.456-13.981-6.157C72.774,68.948,81.985,64.24,92.274,63.291z"/>
</svg>
