<svg width="48" height="48" viewBox="0 0 192 192" xmlns="http://www.w3.org/2000/svg">
  <path d="M177.816,72.821c13.823,11.934,1.226,12.259-6.387,13.743c-10.705,2.086-23.127-5.308-32.196,5.922 c-6.49,11.77-17.126,20.253-24.708,31.157c-13.238-1.038-22.816,7.034-33.116,13.306c-25.193-13.078-27.564-27.418-7.34-43.562 c8.585-6.853,19.152-8.664,29.036-12.201c5.596-2.126,11.121-4.477,16.607-6.898c12.249-4.585,24.862-7.074,38.012-6.243 C165.075,66.857,171.334,70.302,177.816,72.821z" fill="#CDCDCD"/>
  <path d="M11.078,137.039c-12.215-36.01,13.401-75.008,50.881-77.333c8.429-0.523,16.884-0.637,25.327-0.939 c4.124,3.544,4.674,7.965,3.185,12.892c-10.088,12.225-28.46,12.694-37.457,26.473c-8.175,7.626-10.076,18.523-14.55,28.039 C32.646,138.544,24.798,144.973,11.078,137.039z" fill="#747474"/>
  <path d="M107.435,85.786c-4.037,6.105-10.947,4.952-16.705,6.976c-27.322,9.604-29.801,22.143-9.321,44.189 c-1.937,19.209-2.007,19.325-16.673,10.414c-13.507-8.207-28.892,11.485-41.856-3.011c16.334-11.783,19.032-30.922,25.828-47.876 C66.093,80.813,84.621,71.508,107.435,85.786z" fill="#BDBDBD"/>
  <path d="M87.911,72.942c-0.208-4.724-0.416-9.448-0.624-14.174c0-0.001,0.249,0.679,0.249,0.679 c14.77-6.557,27.325,0.352,39.992,6.579c11.568-5.788,3.621-19.613,11.147-27.066c8.98,10.852,16.417,22.655,21.961,35.625 c-12.14,9.304-27.211-3.402-39.437,5.253C109.48,80.547,95.863,90.412,87.911,72.942z" fill="#727272"/>
  <path d="M160.636,74.586c-17.351-5.691-22.01-19.205-21.961-35.624c23.94-1.306,21.788,27.551,39.142,33.86 C172.089,73.41,166.363,73.998,160.636,74.586z" fill="#4D4D4D"/>
  <path d="M49.652,99.133c6.611,24.27-10.846,34.291-26.771,45.22c-4.673-1.247-10.931,0.064-11.804-7.314 c13.166,1.93,17.734-5.797,21.524-16.898c3.521-10.316,3.808-23.261,16.502-28.541c2.111,1.529,2.895,3.154,2.356,4.877 C50.904,98.247,50.303,99.133,49.652,99.133z" fill="#868686"/>
  <path d="M127.528,66.027c-13.757,0.4-27.649,1.621-39.992-6.579 C100.188,32.753,102.56,33.143,127.528,66.027z" fill="#515151"/>
  <path d="M114.525,123.644c2.047-15.294,8.805-26.852,24.708-31.157c1.64,9.794,3.279,19.588,5.216,31.157 C134.059,123.644,124.292,123.644,114.525,123.644z" fill="#686868"/>
  <path d="M49.652,99.133c-0.182-2.508-0.364-5.016-0.548-7.528c9.09-14.219,22.748-18.941,38.807-18.665 c9.375,10.594,22.345,3.82,33.282,6.896c-4.583,1.985-9.171,3.965-13.759,5.948C87.156,85.828,66.532,84.376,49.652,99.133z" fill="#898989"/>
</svg>
