<svg width="48" height="48" viewBox="0 0 192 192" xmlns="http://www.w3.org/2000/svg">
  <g fill="#52829C">
    <path d="M77.565,87.612c-2.092,0-3.889,0-5.899,0C66.134,75.907,60.59,64.179,54.82,51.972 C49.06,64.109,43.523,75.775,37.97,87.473c-1.92,0.395-3.793,0.171-5.952,0.16C24.059,69.307,16.072,50.916,8,32.329 c4.897,0,9.567,0,14.437,0c4.184,9.782,8.403,19.646,12.872,30.096c4.804-10.317,9.403-20.195,14.033-30.14 c3.69,0,7.367,0,11.202,0c4.508,9.918,9.009,19.824,13.704,30.154c4.442-10.318,8.7-20.21,12.973-30.139c4.76,0,9.382,0,14.422,0 C93.59,50.802,85.6,69.156,77.565,87.612z"/>
    <path d="M156.462,84.37c-0.093,0.942-0.166,1.685-0.246,2.495c-3.756,0-7.428,0-11.278,0 c0-18.189,0-36.29,0-54.53c3.707,0,7.368,0,11.252,0c0,6.393,0,12.798,0,19.416c2.208-0.529,3.873-1.745,5.856-2.133 c12.234-2.394,22.225,6.206,21.948,18.99c-0.081,3.73-0.818,7.327-2.69,10.618c-4.44,7.806-13.924,10.673-22.037,6.657 C158.37,85.439,157.503,84.933,156.462,84.37z M156.378,76.849c1.07,0.614,2.044,1.298,3.112,1.765 c5.355,2.343,10.802-0.188,12.281-5.738c0.716-2.686,0.676-5.403,0.225-8.176c-1.239-7.625-10.348-9.621-15.617-4.855 C156.378,65.39,156.378,70.971,156.378,76.849z"/>
    <path d="M135.813,70.377c-8.785,0-17.416,0-26.038,0c-0.22,5.446,3.854,9.463,9.852,9.956 c5.041,0.414,9.684-0.609,13.807-3.648c0.493-0.364,1.038-0.658,1.762-1.111c0.417,2.412,0.118,4.656,0.226,7.018 c-2.617,2.077-5.629,3.311-8.846,4.119c-5.21,1.31-10.456,1.379-15.623-0.037c-8.55-2.343-13.97-9.937-13.56-18.695 c0.444-9.462,6.482-16.654,15.383-18.321C126.211,47.142,136.988,56.67,135.813,70.377z M109.796,64.156 c5.349,0,10.521,0,15.697,0c-0.188-4.526-3.287-7.712-7.543-7.859C113.546,56.145,110.459,59.072,109.796,64.156z"/>
    <g>
      <path d="M69.106,146.658c0,5.046,0,9.556,0,14.314c-5.196,2.977-10.833,5.021-16.857,5.779 c-9.465,1.19-18.801,0.698-27.418-3.885C13.844,157.023,7.998,147.702,8,135.272c0.002-12.577,6.015-22.129,17.152-27.682 c13.834-6.897,28.035-6.305,42.045,0.04c0.245,0.111,0.482,0.251,0.699,0.409c0.141,0.103,0.241,0.264,0.471,0.526 c0,4.442,0,9.01,0,13.981c-4.313-2.584-8.569-4.653-13.255-5.637c-6.391-1.342-12.732-1.411-18.893,1.047 c-7.986,3.185-12.516,10.218-11.973,18.391c0.557,8.39,6.392,14.977,15.277,17.089c8.8,2.092,16.984,0.204,24.755-4.072 C65.757,148.552,67.222,147.715,69.106,146.658z"/>
      <path d="M183.327,153.318c0,2.969,0,5.475,0,8.244c-2.868,2.299-6.33,3.7-10.018,4.635 c-5.98,1.516-12.003,1.589-17.935-0.027c-9.82-2.675-16.046-11.383-15.588-21.448c0.494-10.857,7.422-19.126,17.639-21.052 c15.412-2.906,27.69,7.926,26.495,23.687c-9.951,0-19.931,0-29.892,0c-0.34,6.283,4.367,10.951,11.26,11.524 c5.786,0.481,11.118-0.688,15.855-4.174C181.713,154.288,182.338,153.943,183.327,153.318z M154.091,140.173 c6.007,0,12.017,0,18.054,0c-0.791-5.705-4.28-8.977-9.234-8.885C157.972,131.38,154.583,134.818,154.091,140.173z"/>
      <path d="M134.371,133.253c-5.223,0-10.066,0-15.262,0c0.17,6.874-0.531,13.526,0.579,20.131 c0.402,2.393,2.481,3.778,5.156,3.973c3.241,0.237,6.2-0.804,9.363-2.192c0,3.226,0,6.222,0,9.496 c-6.725,2.794-13.657,3.97-20.688,0.66c-4.472-2.105-7.026-5.726-7.582-10.739c-0.659-5.943-0.224-11.899-0.382-17.847 c-0.028-1.059,0.225-2.152-0.362-3.462c-1.758,0-3.609,0-5.331,0c-0.48-1.075-0.305-1.866-0.239-2.652 c5.604-6.327,11.175-12.597,16.714-18.894c0.717-0.816,1.417-1.366,2.772-0.781c0,4.192,0,8.492,0,13.085 c5.142,0,10.054,0,15.097,0C134.604,127.164,134.4,130.007,134.371,133.253z"/>
      <path d="M80.565,124.183c4.161,0,8.177,0,12.353,0c0,14.083,0,28.032,0,42.141c-4.082,0-8.103,0-12.353,0 C80.565,152.382,80.565,138.445,80.565,124.183z"/>
      <path d="M94.23,110.033c-0.031,4.202-3.222,7.329-7.391,7.243c-4.086-0.085-7.289-3.45-7.178-7.543 c0.104-3.86,3.547-7.082,7.486-7.006C91.172,102.804,94.259,105.989,94.23,110.033z"/>
    </g>
  </g>
</svg>
