<!-- tab_FILL0_wght300_GRAD0_opsz24.svg -->
<svg viewBox="0 -960 960 960" xmlns="http://www.w3.org/2000/svg">
  <path d="M172.309-240h615.382q4.616 0 8.463-3.846 3.846-3.847 3.846-8.463V-560H556.154q-15.462 0-25.808-10.346T520-596.154V-720H172.309q-4.616 0-8.463 3.846-3.846 3.847-3.846 8.463v455.382q0 4.616 3.846 8.463 3.847 3.846 8.463 3.846Zm0 59.999q-30.308 0-51.308-21t-21-51.308v-455.382q0-30.308 21-51.308t51.308-21h615.382q30.308 0 51.308 21t21 51.308v455.382q0 30.308-21 51.308t-51.308 21H172.309ZM160-240V-720-240Z"/>
</svg>
